<mxfile host="app.diagrams.net" agent="Mozilla/5.0 (Windows NT 10.0; Win64; x64) AppleWebKit/537.36 (KHTML, like Gecko) Chrome/138.0.0.0 Safari/537.36" version="28.0.4">
  <diagram name="Page-1" id="20YhaTEln18I4_PRPuHV">
    <mxGraphModel dx="595" dy="301" grid="1" gridSize="10" guides="1" tooltips="1" connect="1" arrows="1" fold="1" page="1" pageScale="1" pageWidth="850" pageHeight="1100" math="0" shadow="0">
      <root>
        <mxCell id="0" />
        <mxCell id="1" parent="0" />
        <mxCell id="GD93v9iV0xq1SFaQ8Sx2-1" value="Core Dependencies" style="swimlane;whiteSpace=wrap;html=1;" vertex="1" parent="1">
          <mxGeometry x="210" y="230" width="220" height="120" as="geometry" />
        </mxCell>
        <mxCell id="GD93v9iV0xq1SFaQ8Sx2-4" value="Libfabric" style="rounded=1;whiteSpace=wrap;html=1;" vertex="1" parent="GD93v9iV0xq1SFaQ8Sx2-1">
          <mxGeometry x="10" y="30" width="60" height="20" as="geometry" />
        </mxCell>
        <mxCell id="GD93v9iV0xq1SFaQ8Sx2-8" value="Mercury" style="rounded=1;whiteSpace=wrap;html=1;" vertex="1" parent="GD93v9iV0xq1SFaQ8Sx2-1">
          <mxGeometry x="80" y="30" width="60" height="20" as="geometry" />
        </mxCell>
        <mxCell id="GD93v9iV0xq1SFaQ8Sx2-9" value="PDC Lib" style="rounded=1;whiteSpace=wrap;html=1;" vertex="1" parent="GD93v9iV0xq1SFaQ8Sx2-1">
          <mxGeometry x="150" y="30" width="60" height="20" as="geometry" />
        </mxCell>
        <mxCell id="GD93v9iV0xq1SFaQ8Sx2-13" value="" style="ellipse;whiteSpace=wrap;html=1;aspect=fixed;" vertex="1" parent="GD93v9iV0xq1SFaQ8Sx2-1">
          <mxGeometry x="-80" y="95" width="10" height="10" as="geometry" />
        </mxCell>
        <mxCell id="GD93v9iV0xq1SFaQ8Sx2-14" value="Option 2" style="endArrow=none;html=1;rounded=0;exitX=1;exitY=0.5;exitDx=0;exitDy=0;" edge="1" parent="GD93v9iV0xq1SFaQ8Sx2-1" source="GD93v9iV0xq1SFaQ8Sx2-13">
          <mxGeometry width="50" height="50" relative="1" as="geometry">
            <mxPoint x="-110" y="175" as="sourcePoint" />
            <mxPoint y="100" as="targetPoint" />
          </mxGeometry>
        </mxCell>
        <mxCell id="GD93v9iV0xq1SFaQ8Sx2-15" value="" style="endArrow=none;html=1;rounded=0;" edge="1" parent="GD93v9iV0xq1SFaQ8Sx2-1">
          <mxGeometry width="50" height="50" relative="1" as="geometry">
            <mxPoint y="100" as="sourcePoint" />
            <mxPoint x="150" y="100" as="targetPoint" />
          </mxGeometry>
        </mxCell>
        <mxCell id="GD93v9iV0xq1SFaQ8Sx2-7" value="Spack" style="rounded=1;whiteSpace=wrap;html=1;" vertex="1" parent="GD93v9iV0xq1SFaQ8Sx2-1">
          <mxGeometry x="150" y="90" width="60" height="20" as="geometry" />
        </mxCell>
        <mxCell id="GD93v9iV0xq1SFaQ8Sx2-24" value="" style="endArrow=none;html=1;rounded=0;exitX=1;exitY=0.5;exitDx=0;exitDy=0;" edge="1" parent="GD93v9iV0xq1SFaQ8Sx2-1" source="GD93v9iV0xq1SFaQ8Sx2-7">
          <mxGeometry width="50" height="50" relative="1" as="geometry">
            <mxPoint x="190" y="120" as="sourcePoint" />
            <mxPoint x="240" y="70" as="targetPoint" />
          </mxGeometry>
        </mxCell>
        <mxCell id="GD93v9iV0xq1SFaQ8Sx2-3" value="Targets" style="swimlane;whiteSpace=wrap;html=1;" vertex="1" parent="1">
          <mxGeometry x="470" y="230" width="150" height="120" as="geometry" />
        </mxCell>
        <mxCell id="GD93v9iV0xq1SFaQ8Sx2-19" value="Python" style="rounded=1;whiteSpace=wrap;html=1;" vertex="1" parent="GD93v9iV0xq1SFaQ8Sx2-3">
          <mxGeometry x="10" y="60" width="60" height="20" as="geometry" />
        </mxCell>
        <mxCell id="GD93v9iV0xq1SFaQ8Sx2-20" value="PDC Lib" style="rounded=1;whiteSpace=wrap;html=1;" vertex="1" parent="GD93v9iV0xq1SFaQ8Sx2-3">
          <mxGeometry x="80" y="30" width="60" height="20" as="geometry" />
        </mxCell>
        <mxCell id="GD93v9iV0xq1SFaQ8Sx2-21" value="HDF5" style="rounded=1;whiteSpace=wrap;html=1;" vertex="1" parent="GD93v9iV0xq1SFaQ8Sx2-3">
          <mxGeometry x="10" y="90" width="60" height="20" as="geometry" />
        </mxCell>
        <mxCell id="GD93v9iV0xq1SFaQ8Sx2-26" value="PDCpy" style="rounded=1;whiteSpace=wrap;html=1;" vertex="1" parent="GD93v9iV0xq1SFaQ8Sx2-3">
          <mxGeometry x="80" y="60" width="60" height="20" as="geometry" />
        </mxCell>
        <mxCell id="GD93v9iV0xq1SFaQ8Sx2-27" value="PDC VOL" style="rounded=1;whiteSpace=wrap;html=1;" vertex="1" parent="GD93v9iV0xq1SFaQ8Sx2-3">
          <mxGeometry x="80" y="90" width="60" height="20" as="geometry" />
        </mxCell>
        <mxCell id="GD93v9iV0xq1SFaQ8Sx2-29" value="" style="endArrow=none;html=1;rounded=0;" edge="1" parent="GD93v9iV0xq1SFaQ8Sx2-3">
          <mxGeometry width="50" height="50" relative="1" as="geometry">
            <mxPoint x="70" y="69.80000000000001" as="sourcePoint" />
            <mxPoint x="80" y="70" as="targetPoint" />
          </mxGeometry>
        </mxCell>
        <mxCell id="GD93v9iV0xq1SFaQ8Sx2-31" value="" style="endArrow=none;html=1;rounded=0;entryX=0;entryY=0.5;entryDx=0;entryDy=0;exitX=1;exitY=0.5;exitDx=0;exitDy=0;" edge="1" parent="GD93v9iV0xq1SFaQ8Sx2-3" source="GD93v9iV0xq1SFaQ8Sx2-21" target="GD93v9iV0xq1SFaQ8Sx2-27">
          <mxGeometry width="50" height="50" relative="1" as="geometry">
            <mxPoint x="30" y="160" as="sourcePoint" />
            <mxPoint x="60" y="190" as="targetPoint" />
          </mxGeometry>
        </mxCell>
        <mxCell id="GD93v9iV0xq1SFaQ8Sx2-11" value="" style="ellipse;whiteSpace=wrap;html=1;aspect=fixed;" vertex="1" parent="1">
          <mxGeometry x="130" y="265" width="10" height="10" as="geometry" />
        </mxCell>
        <mxCell id="GD93v9iV0xq1SFaQ8Sx2-12" value="Option 1" style="endArrow=none;html=1;rounded=0;exitX=1;exitY=0.5;exitDx=0;exitDy=0;" edge="1" parent="1" source="GD93v9iV0xq1SFaQ8Sx2-11">
          <mxGeometry width="50" height="50" relative="1" as="geometry">
            <mxPoint x="100" y="340" as="sourcePoint" />
            <mxPoint x="210" y="270" as="targetPoint" />
          </mxGeometry>
        </mxCell>
        <mxCell id="GD93v9iV0xq1SFaQ8Sx2-16" value="" style="endArrow=none;html=1;rounded=0;entryX=0;entryY=0.5;entryDx=0;entryDy=0;" edge="1" parent="1" target="GD93v9iV0xq1SFaQ8Sx2-4">
          <mxGeometry width="50" height="50" relative="1" as="geometry">
            <mxPoint x="210" y="270" as="sourcePoint" />
            <mxPoint x="260" y="220" as="targetPoint" />
          </mxGeometry>
        </mxCell>
        <mxCell id="GD93v9iV0xq1SFaQ8Sx2-17" value="" style="endArrow=none;html=1;rounded=0;entryX=0;entryY=0.5;entryDx=0;entryDy=0;" edge="1" parent="1" target="GD93v9iV0xq1SFaQ8Sx2-8">
          <mxGeometry width="50" height="50" relative="1" as="geometry">
            <mxPoint x="280" y="270" as="sourcePoint" />
            <mxPoint x="330" y="220" as="targetPoint" />
          </mxGeometry>
        </mxCell>
        <mxCell id="GD93v9iV0xq1SFaQ8Sx2-18" value="" style="endArrow=none;html=1;rounded=0;entryX=0;entryY=0.5;entryDx=0;entryDy=0;" edge="1" parent="1" target="GD93v9iV0xq1SFaQ8Sx2-9">
          <mxGeometry width="50" height="50" relative="1" as="geometry">
            <mxPoint x="350" y="270" as="sourcePoint" />
            <mxPoint x="400" y="220" as="targetPoint" />
          </mxGeometry>
        </mxCell>
        <mxCell id="GD93v9iV0xq1SFaQ8Sx2-25" value="" style="endArrow=none;html=1;rounded=0;entryX=1;entryY=0.5;entryDx=0;entryDy=0;" edge="1" parent="1" target="GD93v9iV0xq1SFaQ8Sx2-9">
          <mxGeometry width="50" height="50" relative="1" as="geometry">
            <mxPoint x="450" y="300" as="sourcePoint" />
            <mxPoint x="480" y="350" as="targetPoint" />
          </mxGeometry>
        </mxCell>
        <mxCell id="GD93v9iV0xq1SFaQ8Sx2-28" value="" style="endArrow=none;html=1;rounded=0;entryX=0;entryY=0.5;entryDx=0;entryDy=0;" edge="1" parent="1" target="GD93v9iV0xq1SFaQ8Sx2-19">
          <mxGeometry width="50" height="50" relative="1" as="geometry">
            <mxPoint x="450" y="300" as="sourcePoint" />
            <mxPoint x="500" y="250" as="targetPoint" />
          </mxGeometry>
        </mxCell>
        <mxCell id="GD93v9iV0xq1SFaQ8Sx2-30" value="" style="endArrow=none;html=1;rounded=0;entryX=0;entryY=0.5;entryDx=0;entryDy=0;" edge="1" parent="1" target="GD93v9iV0xq1SFaQ8Sx2-21">
          <mxGeometry width="50" height="50" relative="1" as="geometry">
            <mxPoint x="450" y="300" as="sourcePoint" />
            <mxPoint x="500" y="350" as="targetPoint" />
          </mxGeometry>
        </mxCell>
        <mxCell id="GD93v9iV0xq1SFaQ8Sx2-32" value="" style="endArrow=none;html=1;rounded=0;" edge="1" parent="1">
          <mxGeometry width="50" height="50" relative="1" as="geometry">
            <mxPoint x="480" y="270" as="sourcePoint" />
            <mxPoint x="450" y="300" as="targetPoint" />
          </mxGeometry>
        </mxCell>
        <mxCell id="GD93v9iV0xq1SFaQ8Sx2-33" value="" style="endArrow=none;html=1;rounded=0;entryX=0;entryY=0.5;entryDx=0;entryDy=0;" edge="1" parent="1" target="GD93v9iV0xq1SFaQ8Sx2-20">
          <mxGeometry width="50" height="50" relative="1" as="geometry">
            <mxPoint x="480" y="270" as="sourcePoint" />
            <mxPoint x="530" y="220" as="targetPoint" />
          </mxGeometry>
        </mxCell>
      </root>
    </mxGraphModel>
  </diagram>
</mxfile>
